<svg xmlns="http://www.w3.org/2000/svg" width="60" height="60" viewBox="0 0 60 60">
  <g id="Group_1643" data-name="Group 1643" transform="translate(24143 16570)">
    <circle id="Ellipse_150" data-name="Ellipse 150" cx="30" cy="30" r="30" transform="translate(-24143 -16570)" fill="#f2af29"/>
    <g id="XMLID_822_" transform="translate(-24127 -16595.918)">
      <path id="XMLID_823_" d="M27.87,47.669c-1.047-1.244-2.98-1.752-6.671-1.752H7.8c-3.776,0-5.741.54-6.784,1.865C0,49.074,0,50.977,0,53.611v5.021c0,5.1,1.206,7.694,7.8,7.694H21.2c3.2,0,4.975-.448,6.122-1.546C28.5,63.654,29,61.815,29,58.632V53.611C29,50.833,28.921,48.919,27.87,47.669Zm-9.252,9.146-6.084,3.18a.935.935,0,0,1-1.369-.829V52.826A.935.935,0,0,1,12.532,52l6.084,3.159a.935.935,0,0,1,0,1.659Z" fill="#616055"/>
    </g>
  </g>
</svg>
