<svg xmlns="http://www.w3.org/2000/svg" xmlns:xlink="http://www.w3.org/1999/xlink" width="55" height="55" viewBox="0 0 55 55">
  <defs>
    <clipPath id="clip-Profile">
      <rect width="55" height="55"/>
    </clipPath>
  </defs>
  <g id="Profile" clip-path="url(#clip-Profile)">
    <g id="Group_1865" data-name="Group 1865">
      <path id="Path_1737" data-name="Path 1737" d="M19.153,41.552l-8.372,4.313a7.535,7.535,0,0,0-1.344.9,29.316,29.316,0,0,0,36.029.088,7.471,7.471,0,0,0-1.476-.934l-8.965-4.233a3.215,3.215,0,0,1-1.89-2.888V35.479a12.917,12.917,0,0,0,.848-1.03,19.072,19.072,0,0,0,2.787-5.3,2.684,2.684,0,0,0,2-2.53V23.069a2.586,2.586,0,0,0-.938-1.965V15.978S38.944,8,27.5,8s-10.324,7.977-10.324,7.977V21.1a2.583,2.583,0,0,0-.938,1.965v3.546a2.627,2.627,0,0,0,1.3,2.231,17.273,17.273,0,0,0,3.395,6.633v3.24A3.21,3.21,0,0,1,19.153,41.552Z" transform="translate(0 2.002)" fill="#e7eced"/>
      <g id="Group_1864" data-name="Group 1864" transform="translate(0 0)">
        <path id="Path_1738" data-name="Path 1738" d="M27.971,0A27.64,27.64,0,0,0,9.8,48.758a7.308,7.308,0,0,1,1.3-.932l8.206-4.5a3.371,3.371,0,0,0,1.747-2.956V36.994a18.362,18.362,0,0,1-3.327-6.916,2.776,2.776,0,0,1-1.272-2.326v-3.7A2.766,2.766,0,0,1,17.382,22V16.66S16.289,8.342,27.5,8.342,37.618,16.66,37.618,16.66V22a2.762,2.762,0,0,1,.919,2.049v3.7a2.771,2.771,0,0,1-1.957,2.638,20.354,20.354,0,0,1-2.731,5.531,13.326,13.326,0,0,1-.831,1.074v3.464a3.367,3.367,0,0,0,1.852,3.011l8.787,4.414a7.314,7.314,0,0,1,1.443.972A27.655,27.655,0,0,0,27.971,0Z" transform="translate(0 0)" fill="#556080"/>
      </g>
    </g>
  </g>
</svg>
