<svg xmlns="http://www.w3.org/2000/svg" width="59.999" height="60" viewBox="0 0 59.999 60">
  <g id="Group_1922" data-name="Group 1922" transform="translate(-2.25 -2.249)">
    <path id="Path_1763" data-name="Path 1763" d="M36.847,10.253l-6.79,3.113,19.1,10.955-5.25-11.448a6.141,6.141,0,0,1-7.06-2.621Z" transform="translate(0.233 0.067)" fill="#616055"/>
    <path id="Path_1764" data-name="Path 1764" d="M36.907,8.649a.757.757,0,0,1,1,.372,4.623,4.623,0,0,0,6.119,2.271.757.757,0,0,1,1,.372l6.325,13.792H55.3L45.4,3.868A2.773,2.773,0,0,0,41.719,2.5L24.673,10.32l3.817,2.189,8.417-3.86Z" transform="translate(0.188 0)" fill="#616055"/>
    <path id="Path_1765" data-name="Path 1765" d="M15.793,18.8l-3.749,6.537H37.895L23.062,16.828a6.143,6.143,0,0,1-7.269,1.97Z" transform="translate(0.082 0.122)" fill="#616055"/>
    <path id="Path_1766" data-name="Path 1766" d="M14.884,17.5a.756.756,0,0,1,1.032-.28,4.625,4.625,0,0,0,6.3-1.708.755.755,0,0,1,1.032-.28L40.983,25.407h7.2L19.014,8.677A2.773,2.773,0,0,0,15.228,9.7l-9.008,15.7h4.129L14.884,17.5Z" transform="translate(0.033 0.051)" fill="#616055"/>
    <path id="Path_1767" data-name="Path 1767" d="M59.476,26.765H5.023A2.776,2.776,0,0,0,2.25,29.538V59.27a2.776,2.776,0,0,0,2.773,2.773H59.476a2.776,2.776,0,0,0,2.773-2.773V29.538A2.776,2.776,0,0,0,59.476,26.765ZM58.215,51.2a.756.756,0,0,1-.756.756,5.3,5.3,0,0,0-5.294,5.294.756.756,0,0,1-.756.756H13.09a.756.756,0,0,1-.756-.756A5.3,5.3,0,0,0,7.04,51.96a.756.756,0,0,1-.756-.756V37.6a.756.756,0,0,1,.756-.756,5.3,5.3,0,0,0,5.294-5.294.756.756,0,0,1,.756-.756H51.409a.756.756,0,0,1,.756.756,5.3,5.3,0,0,0,5.294,5.294.756.756,0,0,1,.756.756Z" transform="translate(0 0.206)" fill="#616055"/>
    <path id="Path_1768" data-name="Path 1768" d="M50.648,32.265H13.758A6.819,6.819,0,0,1,7.75,38.273v12.17a6.819,6.819,0,0,1,6.008,6.008h36.89a6.819,6.819,0,0,1,6.008-6.008V38.273A6.819,6.819,0,0,1,50.648,32.265ZM32.2,53.181a8.823,8.823,0,1,1,8.823-8.823A8.833,8.833,0,0,1,32.2,53.181Z" transform="translate(0.046 0.252)" fill="#616055"/>
    <circle id="Ellipse_190" data-name="Ellipse 190" cx="7.311" cy="7.311" r="7.311" transform="translate(24.939 37.298)" fill="#616055"/>
  </g>
</svg>
